# xmcd CD database file
#
# Track frame offsets:
#	150
#	22562
#	45357
#	56625
#	72182
#	93310
#	114820
#	123737
#	137235
#	158342
#	175460
#	196015
#	217065
#	236882
#	256425
#
# Disc length: 3656 seconds
#
# Revision: 0
# Processed by: cddbd v1.5.1PL2 Copyright (c) Steve Scherf et al.
# Submitted via: CDex 1.70beta1
#
DISCID=c80e460f
DTITLE=Stumptown Jazz - Hot Time In The Old Town
DYEAR=1900
DGENRE=Jazz
TTITLE0=Weary Blues
TTITLE1=Canal Street Blues
TTITLE2=Hot Time In The Old Town
TTITLE3=West End Blues
TTITLE4=I Ain'y Gonna Give Nobody None of This Jelly-Roll
TTITLE5=Joe Avery's Piece
TTITLE6=With Plenty of Money and You
TTITLE7=Steamboat Stomp
TTITLE8=Wolverine Blues
TTITLE9=Baby, Won't You Please Come Home
TTITLE10=Come Back Sweet Papa
TTITLE11=Buddy Bolden's Blues
TTITLE12=Alexander's Ragtime Band
TTITLE13=Sundown Mama
TTITLE14=Oriental Strut
EXTD=
EXTT0=
EXTT1=
EXTT2=
EXTT3=
EXTT4=
EXTT5=
EXTT6=
EXTT7=
EXTT8=
EXTT9=
EXTT10=
EXTT11=
EXTT12=
EXTT13=
EXTT14=
PLAYORDER=
